<mxfile host="app.diagrams.net" modified="2021-02-16T19:21:53.916Z" agent="5.0 (Windows NT 10.0; Win64; x64) AppleWebKit/537.36 (KHTML, like Gecko) Chrome/88.0.4324.41 YaBrowser/21.2.0.1097 Yowser/2.5 Safari/537.36" etag="AoE8wd6QfFEQQBiFoh36" version="14.3.2" type="github">
  <diagram id="YtydE6kkRpb2nfxRTz8Y" name="Page-1">
    <mxGraphModel dx="1422" dy="803" grid="1" gridSize="10" guides="1" tooltips="1" connect="1" arrows="1" fold="1" page="1" pageScale="1" pageWidth="827" pageHeight="1169" math="0" shadow="0">
      <root>
        <mxCell id="0" />
        <mxCell id="1" parent="0" />
        <mxCell id="HZ1h33BHQv4mEF_JyBVs-1" value="&lt;ol&gt;&lt;li&gt;Эмоции&lt;/li&gt;&lt;li&gt;Человек&lt;/li&gt;&lt;li&gt;Доставщик воспоминаний в память&lt;/li&gt;&lt;li&gt;Работники мозга&lt;/li&gt;&lt;li&gt;Другие люди&lt;/li&gt;&lt;/ol&gt;" style="text;html=1;strokeColor=none;fillColor=none;align=left;verticalAlign=top;whiteSpace=wrap;rounded=0;" parent="1" vertex="1">
          <mxGeometry width="260" height="110" as="geometry" />
        </mxCell>
        <mxCell id="HZ1h33BHQv4mEF_JyBVs-15" value="действие" style="edgeStyle=orthogonalEdgeStyle;rounded=0;orthogonalLoop=1;jettySize=auto;html=1;" parent="1" source="HZ1h33BHQv4mEF_JyBVs-9" target="HZ1h33BHQv4mEF_JyBVs-14" edge="1">
          <mxGeometry relative="1" as="geometry" />
        </mxCell>
        <mxCell id="HZ1h33BHQv4mEF_JyBVs-9" value="5" style="ellipse;whiteSpace=wrap;html=1;aspect=fixed;" parent="1" vertex="1">
          <mxGeometry x="300" width="80" height="80" as="geometry" />
        </mxCell>
        <mxCell id="HZ1h33BHQv4mEF_JyBVs-17" value="тип ответа" style="edgeStyle=orthogonalEdgeStyle;rounded=0;orthogonalLoop=1;jettySize=auto;html=1;" parent="1" source="HZ1h33BHQv4mEF_JyBVs-14" target="HZ1h33BHQv4mEF_JyBVs-16" edge="1">
          <mxGeometry relative="1" as="geometry" />
        </mxCell>
        <mxCell id="HZ1h33BHQv4mEF_JyBVs-14" value="1" style="ellipse;whiteSpace=wrap;html=1;aspect=fixed;" parent="1" vertex="1">
          <mxGeometry x="460" width="80" height="80" as="geometry" />
        </mxCell>
        <mxCell id="HZ1h33BHQv4mEF_JyBVs-19" value="ответ + формирование воспоминания" style="edgeStyle=orthogonalEdgeStyle;rounded=0;orthogonalLoop=1;jettySize=auto;html=1;" parent="1" source="HZ1h33BHQv4mEF_JyBVs-16" target="HZ1h33BHQv4mEF_JyBVs-18" edge="1">
          <mxGeometry relative="1" as="geometry" />
        </mxCell>
        <mxCell id="HZ1h33BHQv4mEF_JyBVs-16" value="2" style="ellipse;whiteSpace=wrap;html=1;aspect=fixed;" parent="1" vertex="1">
          <mxGeometry x="620" width="80" height="80" as="geometry" />
        </mxCell>
        <mxCell id="HZ1h33BHQv4mEF_JyBVs-21" value="изменение типа" style="edgeStyle=orthogonalEdgeStyle;rounded=0;orthogonalLoop=1;jettySize=auto;html=1;" parent="1" source="HZ1h33BHQv4mEF_JyBVs-18" target="HZ1h33BHQv4mEF_JyBVs-20" edge="1">
          <mxGeometry relative="1" as="geometry" />
        </mxCell>
        <mxCell id="HZ1h33BHQv4mEF_JyBVs-18" value="1" style="ellipse;whiteSpace=wrap;html=1;aspect=fixed;" parent="1" vertex="1">
          <mxGeometry x="620" y="160" width="80" height="80" as="geometry" />
        </mxCell>
        <mxCell id="HZ1h33BHQv4mEF_JyBVs-23" value="пересылка" style="edgeStyle=orthogonalEdgeStyle;rounded=0;orthogonalLoop=1;jettySize=auto;html=1;" parent="1" source="HZ1h33BHQv4mEF_JyBVs-20" target="GJBphu8MT9v6fdxEltUU-6" edge="1">
          <mxGeometry relative="1" as="geometry">
            <mxPoint x="380" y="200" as="targetPoint" />
          </mxGeometry>
        </mxCell>
        <mxCell id="HZ1h33BHQv4mEF_JyBVs-20" value="3" style="ellipse;whiteSpace=wrap;html=1;aspect=fixed;" parent="1" vertex="1">
          <mxGeometry x="460" y="160" width="80" height="80" as="geometry" />
        </mxCell>
        <mxCell id="HZ1h33BHQv4mEF_JyBVs-25" value="проверка" style="edgeStyle=orthogonalEdgeStyle;rounded=0;orthogonalLoop=1;jettySize=auto;html=1;" parent="1" edge="1">
          <mxGeometry relative="1" as="geometry">
            <mxPoint x="340" y="240" as="sourcePoint" />
            <mxPoint x="340" y="320" as="targetPoint" />
          </mxGeometry>
        </mxCell>
        <mxCell id="HZ1h33BHQv4mEF_JyBVs-27" value="нужное" style="edgeStyle=orthogonalEdgeStyle;rounded=0;orthogonalLoop=1;jettySize=auto;html=1;" parent="1" target="HZ1h33BHQv4mEF_JyBVs-26" edge="1">
          <mxGeometry relative="1" as="geometry">
            <mxPoint x="380" y="360" as="sourcePoint" />
          </mxGeometry>
        </mxCell>
        <mxCell id="HZ1h33BHQv4mEF_JyBVs-29" value="Обогащение" style="edgeStyle=orthogonalEdgeStyle;rounded=0;orthogonalLoop=1;jettySize=auto;html=1;" parent="1" source="HZ1h33BHQv4mEF_JyBVs-26" target="HZ1h33BHQv4mEF_JyBVs-28" edge="1">
          <mxGeometry relative="1" as="geometry" />
        </mxCell>
        <mxCell id="HZ1h33BHQv4mEF_JyBVs-26" value="4" style="ellipse;whiteSpace=wrap;html=1;aspect=fixed;" parent="1" vertex="1">
          <mxGeometry x="460" y="320" width="80" height="80" as="geometry" />
        </mxCell>
        <mxCell id="HZ1h33BHQv4mEF_JyBVs-31" value="Изменение типа воспоминания" style="edgeStyle=orthogonalEdgeStyle;rounded=0;orthogonalLoop=1;jettySize=auto;html=1;" parent="1" source="HZ1h33BHQv4mEF_JyBVs-28" target="HZ1h33BHQv4mEF_JyBVs-30" edge="1">
          <mxGeometry relative="1" as="geometry" />
        </mxCell>
        <mxCell id="HZ1h33BHQv4mEF_JyBVs-28" value="1" style="ellipse;whiteSpace=wrap;html=1;aspect=fixed;" parent="1" vertex="1">
          <mxGeometry x="620" y="320" width="80" height="80" as="geometry" />
        </mxCell>
        <mxCell id="HZ1h33BHQv4mEF_JyBVs-33" value="" style="edgeStyle=orthogonalEdgeStyle;rounded=0;orthogonalLoop=1;jettySize=auto;html=1;" parent="1" source="HZ1h33BHQv4mEF_JyBVs-30" target="HZ1h33BHQv4mEF_JyBVs-32" edge="1">
          <mxGeometry relative="1" as="geometry" />
        </mxCell>
        <mxCell id="HZ1h33BHQv4mEF_JyBVs-30" value="" style="ellipse;whiteSpace=wrap;html=1;aspect=fixed;" parent="1" vertex="1">
          <mxGeometry x="620" y="480" width="80" height="80" as="geometry" />
        </mxCell>
        <mxCell id="HZ1h33BHQv4mEF_JyBVs-35" value="" style="edgeStyle=orthogonalEdgeStyle;rounded=0;orthogonalLoop=1;jettySize=auto;html=1;" parent="1" source="HZ1h33BHQv4mEF_JyBVs-32" target="HZ1h33BHQv4mEF_JyBVs-34" edge="1">
          <mxGeometry relative="1" as="geometry" />
        </mxCell>
        <mxCell id="HZ1h33BHQv4mEF_JyBVs-32" value="" style="ellipse;whiteSpace=wrap;html=1;aspect=fixed;" parent="1" vertex="1">
          <mxGeometry x="460" y="480" width="80" height="80" as="geometry" />
        </mxCell>
        <mxCell id="HZ1h33BHQv4mEF_JyBVs-37" value="" style="edgeStyle=orthogonalEdgeStyle;rounded=0;orthogonalLoop=1;jettySize=auto;html=1;" parent="1" source="HZ1h33BHQv4mEF_JyBVs-34" target="HZ1h33BHQv4mEF_JyBVs-36" edge="1">
          <mxGeometry relative="1" as="geometry" />
        </mxCell>
        <mxCell id="HZ1h33BHQv4mEF_JyBVs-34" value="" style="ellipse;whiteSpace=wrap;html=1;aspect=fixed;" parent="1" vertex="1">
          <mxGeometry x="300" y="480" width="80" height="80" as="geometry" />
        </mxCell>
        <mxCell id="HZ1h33BHQv4mEF_JyBVs-39" value="" style="edgeStyle=orthogonalEdgeStyle;rounded=0;orthogonalLoop=1;jettySize=auto;html=1;" parent="1" source="HZ1h33BHQv4mEF_JyBVs-36" target="HZ1h33BHQv4mEF_JyBVs-38" edge="1">
          <mxGeometry relative="1" as="geometry" />
        </mxCell>
        <mxCell id="HZ1h33BHQv4mEF_JyBVs-36" value="" style="ellipse;whiteSpace=wrap;html=1;aspect=fixed;" parent="1" vertex="1">
          <mxGeometry x="300" y="640" width="80" height="80" as="geometry" />
        </mxCell>
        <mxCell id="HZ1h33BHQv4mEF_JyBVs-41" value="" style="edgeStyle=orthogonalEdgeStyle;rounded=0;orthogonalLoop=1;jettySize=auto;html=1;" parent="1" source="HZ1h33BHQv4mEF_JyBVs-38" target="HZ1h33BHQv4mEF_JyBVs-40" edge="1">
          <mxGeometry relative="1" as="geometry" />
        </mxCell>
        <mxCell id="HZ1h33BHQv4mEF_JyBVs-38" value="" style="ellipse;whiteSpace=wrap;html=1;aspect=fixed;" parent="1" vertex="1">
          <mxGeometry x="460" y="640" width="80" height="80" as="geometry" />
        </mxCell>
        <mxCell id="HZ1h33BHQv4mEF_JyBVs-40" value="" style="ellipse;whiteSpace=wrap;html=1;aspect=fixed;" parent="1" vertex="1">
          <mxGeometry x="620" y="640" width="80" height="80" as="geometry" />
        </mxCell>
        <mxCell id="GJBphu8MT9v6fdxEltUU-5" value="мусор" style="edgeStyle=orthogonalEdgeStyle;rounded=0;orthogonalLoop=1;jettySize=auto;html=1;exitX=0;exitY=0.5;exitDx=0;exitDy=0;" parent="1" target="GJBphu8MT9v6fdxEltUU-4" edge="1">
          <mxGeometry relative="1" as="geometry">
            <mxPoint x="300" y="360" as="sourcePoint" />
          </mxGeometry>
        </mxCell>
        <mxCell id="GJBphu8MT9v6fdxEltUU-4" value="Выкинули" style="ellipse;whiteSpace=wrap;html=1;" parent="1" vertex="1">
          <mxGeometry x="170" y="320" width="80" height="80" as="geometry" />
        </mxCell>
        <mxCell id="GJBphu8MT9v6fdxEltUU-6" value="4" style="ellipse;whiteSpace=wrap;html=1;aspect=fixed;" parent="1" vertex="1">
          <mxGeometry x="300" y="160" width="80" height="80" as="geometry" />
        </mxCell>
        <mxCell id="GJBphu8MT9v6fdxEltUU-7" value="" style="rhombus;whiteSpace=wrap;html=1;" parent="1" vertex="1">
          <mxGeometry x="300" y="320" width="80" height="80" as="geometry" />
        </mxCell>
      </root>
    </mxGraphModel>
  </diagram>
</mxfile>
